<mxfile host="app.diagrams.net" modified="2021-11-19T15:38:01.154Z" agent="5.0 (Macintosh; Intel Mac OS X 10_14_3) AppleWebKit/537.36 (KHTML, like Gecko) Chrome/96.0.4664.45 Safari/537.36" etag="hOmwE7hGmoiwDhCwnHsH" version="15.8.2" type="github">
  <diagram id="t6HOGKDSK19Z0ALwqWIO" name="Page-1">
    <mxGraphModel dx="946" dy="557" grid="0" gridSize="10" guides="1" tooltips="1" connect="1" arrows="1" fold="1" page="1" pageScale="1" pageWidth="827" pageHeight="1169" math="0" shadow="0">
      <root>
        <mxCell id="0" />
        <mxCell id="1" parent="0" />
        <mxCell id="Yl_cxWe-erZnYKXwjN0h-1" value="LogResolver" style="whiteSpace=wrap;html=1;rounded=1;" parent="1" vertex="1">
          <mxGeometry x="330" y="120" width="120" height="60" as="geometry" />
        </mxCell>
        <mxCell id="Yl_cxWe-erZnYKXwjN0h-7" style="edgeStyle=orthogonalEdgeStyle;orthogonalLoop=1;jettySize=auto;html=1;exitX=0.5;exitY=0;exitDx=0;exitDy=0;entryX=0.5;entryY=1;entryDx=0;entryDy=0;" parent="1" source="Yl_cxWe-erZnYKXwjN0h-2" target="Yl_cxWe-erZnYKXwjN0h-1" edge="1">
          <mxGeometry relative="1" as="geometry" />
        </mxCell>
        <mxCell id="Yl_cxWe-erZnYKXwjN0h-2" value="JsonLogResolver" style="whiteSpace=wrap;html=1;rounded=1;" parent="1" vertex="1">
          <mxGeometry x="220" y="220" width="120" height="60" as="geometry" />
        </mxCell>
        <mxCell id="Yl_cxWe-erZnYKXwjN0h-8" style="edgeStyle=orthogonalEdgeStyle;orthogonalLoop=1;jettySize=auto;html=1;exitX=0.5;exitY=0;exitDx=0;exitDy=0;" parent="1" source="Yl_cxWe-erZnYKXwjN0h-3" edge="1">
          <mxGeometry relative="1" as="geometry">
            <mxPoint x="390" y="180" as="targetPoint" />
          </mxGeometry>
        </mxCell>
        <mxCell id="Yl_cxWe-erZnYKXwjN0h-3" value="PatternLogResolver" style="whiteSpace=wrap;html=1;rounded=1;" parent="1" vertex="1">
          <mxGeometry x="440" y="220" width="120" height="60" as="geometry" />
        </mxCell>
        <mxCell id="Yl_cxWe-erZnYKXwjN0h-4" value="IWriter" style="whiteSpace=wrap;html=1;rounded=1;" parent="1" vertex="1">
          <mxGeometry x="340" y="400" width="120" height="60" as="geometry" />
        </mxCell>
        <mxCell id="Yl_cxWe-erZnYKXwjN0h-9" style="edgeStyle=orthogonalEdgeStyle;orthogonalLoop=1;jettySize=auto;html=1;exitX=0.5;exitY=0;exitDx=0;exitDy=0;entryX=0.5;entryY=1;entryDx=0;entryDy=0;" parent="1" source="Yl_cxWe-erZnYKXwjN0h-5" target="Yl_cxWe-erZnYKXwjN0h-4" edge="1">
          <mxGeometry relative="1" as="geometry" />
        </mxCell>
        <mxCell id="Yl_cxWe-erZnYKXwjN0h-5" value="FileWriter" style="whiteSpace=wrap;html=1;rounded=1;" parent="1" vertex="1">
          <mxGeometry x="230" y="510" width="120" height="60" as="geometry" />
        </mxCell>
        <mxCell id="Yl_cxWe-erZnYKXwjN0h-10" style="edgeStyle=orthogonalEdgeStyle;orthogonalLoop=1;jettySize=auto;html=1;exitX=0.5;exitY=0;exitDx=0;exitDy=0;entryX=0.5;entryY=1;entryDx=0;entryDy=0;" parent="1" source="Yl_cxWe-erZnYKXwjN0h-6" target="Yl_cxWe-erZnYKXwjN0h-4" edge="1">
          <mxGeometry relative="1" as="geometry" />
        </mxCell>
        <mxCell id="Yl_cxWe-erZnYKXwjN0h-6" value="SystemOutWriter" style="whiteSpace=wrap;html=1;rounded=1;" parent="1" vertex="1">
          <mxGeometry x="430" y="510" width="120" height="60" as="geometry" />
        </mxCell>
        <mxCell id="Yl_cxWe-erZnYKXwjN0h-11" value="" style="rounded=1;whiteSpace=wrap;html=1;fillColor=#d5e8d4;strokeColor=#82b366;shadow=0;sketch=1;glass=0;" parent="1" vertex="1">
          <mxGeometry x="137" y="645" width="577" height="195" as="geometry" />
        </mxCell>
        <mxCell id="Yl_cxWe-erZnYKXwjN0h-12" value="FileWriter" style="text;html=1;strokeColor=none;fillColor=none;align=center;verticalAlign=middle;whiteSpace=wrap;rounded=0;" parent="1" vertex="1">
          <mxGeometry x="366" y="666" width="60" height="30" as="geometry" />
        </mxCell>
        <mxCell id="Yl_cxWe-erZnYKXwjN0h-19" value="" style="edgeStyle=orthogonalEdgeStyle;rounded=1;orthogonalLoop=1;jettySize=auto;html=1;" parent="1" source="Yl_cxWe-erZnYKXwjN0h-13" target="Yl_cxWe-erZnYKXwjN0h-14" edge="1">
          <mxGeometry relative="1" as="geometry" />
        </mxCell>
        <mxCell id="Yl_cxWe-erZnYKXwjN0h-13" value="ArrayBlockingQueue" style="rounded=1;whiteSpace=wrap;html=1;fillColor=#ffe6cc;strokeColor=#d79b00;" parent="1" vertex="1">
          <mxGeometry x="151" y="731" width="120" height="60" as="geometry" />
        </mxCell>
        <mxCell id="Yl_cxWe-erZnYKXwjN0h-22" value="" style="edgeStyle=orthogonalEdgeStyle;rounded=1;orthogonalLoop=1;jettySize=auto;html=1;" parent="1" source="Yl_cxWe-erZnYKXwjN0h-14" target="Yl_cxWe-erZnYKXwjN0h-20" edge="1">
          <mxGeometry relative="1" as="geometry" />
        </mxCell>
        <mxCell id="Yl_cxWe-erZnYKXwjN0h-14" value="ScheduledExecutorService" style="rounded=1;whiteSpace=wrap;html=1;fillColor=#fff2cc;strokeColor=#d6b656;" parent="1" vertex="1">
          <mxGeometry x="298" y="731" width="156" height="60" as="geometry" />
        </mxCell>
        <mxCell id="Yl_cxWe-erZnYKXwjN0h-24" value="" style="edgeStyle=orthogonalEdgeStyle;rounded=1;orthogonalLoop=1;jettySize=auto;html=1;" parent="1" source="Yl_cxWe-erZnYKXwjN0h-20" target="Yl_cxWe-erZnYKXwjN0h-23" edge="1">
          <mxGeometry relative="1" as="geometry" />
        </mxCell>
        <mxCell id="Yl_cxWe-erZnYKXwjN0h-20" value="FileOutputStream" style="rounded=1;whiteSpace=wrap;html=1;fillColor=#f8cecc;strokeColor=#b85450;" parent="1" vertex="1">
          <mxGeometry x="481" y="731" width="113" height="60" as="geometry" />
        </mxCell>
        <mxCell id="Yl_cxWe-erZnYKXwjN0h-23" value="File" style="whiteSpace=wrap;html=1;rounded=1;fillColor=#e1d5e7;strokeColor=#9673a6;" parent="1" vertex="1">
          <mxGeometry x="615" y="731" width="80" height="60" as="geometry" />
        </mxCell>
        <mxCell id="Yl_cxWe-erZnYKXwjN0h-25" value="FileWriter负责将日志信息写入&lt;span style=&quot;text-align: center&quot;&gt;ArrayBlockingQueue队列中&lt;br&gt;&lt;/span&gt;&lt;br&gt;ScheduledExecutorService定时任务&lt;br&gt;1、每秒从ArrayBlockingQueue取出所有日志信息，写入到文件中；&lt;br&gt;2、判断文件大小是否超过最大值Config.Logging.MAX_FILE_SIZE；&lt;br&gt;3、如果超过将当前文件重命名。" style="text;html=1;strokeColor=none;fillColor=none;align=left;verticalAlign=top;whiteSpace=wrap;rounded=0;" parent="1" vertex="1">
          <mxGeometry x="244" y="858" width="376" height="123" as="geometry" />
        </mxCell>
        <mxCell id="zlm0925ruirDHPnKztXN-1" value="麻雀虽小，五脏俱全" style="text;html=1;strokeColor=#6c8ebf;fillColor=#dae8fc;align=center;verticalAlign=middle;whiteSpace=wrap;rounded=0;" vertex="1" parent="1">
          <mxGeometry x="307" y="32" width="129" height="35" as="geometry" />
        </mxCell>
      </root>
    </mxGraphModel>
  </diagram>
</mxfile>
